<?xml version="1.0" standalone="no"?><!DOCTYPE svg PUBLIC "-//W3C//DTD SVG 1.1//EN" "http://www.w3.org/Graphics/SVG/1.1/DTD/svg11.dtd"><svg width="32" height="32" viewBox="0 0 32 32" version="1.1" xmlns="http://www.w3.org/2000/svg" xmlns:xlink="http://www.w3.org/1999/xlink"><defs><style type="text/css"><![CDATA[
@font-face { font-family: ifont; src: url("//at.alicdn.com/t/font_1442373896_4754455.eot?#iefix") format("embedded-opentype"), url("//at.alicdn.com/t/font_1442373896_4754455.woff") format("woff"), url("//at.alicdn.com/t/font_1442373896_4754455.ttf") format("truetype"), url("//at.alicdn.com/t/font_1442373896_4754455.svg#ifont") format("svg"); }

]]></style></defs><g class="transform-group"><g transform="scale(0.03125, 0.03125)"><path d="M511.728725 0.93504C229.158907 0.93504 0.063353 229.709156 0.063353 511.938491 0.063353 794.222517 229.158907 1022.969289 511.728725 1022.969289 794.296259 1022.969289 1023.394099 794.222517 1023.394099 511.938491 1023.394099 229.706878 794.296259 0.93504 511.728725 0.93504L511.728725 0.93504ZM696.349102 230.56825C747.098993 230.56825 788.299913 271.740938 788.299913 322.482149 788.299913 373.248428 747.098993 414.257043 696.349102 414.257043 645.544441 414.257043 604.345803 373.248428 604.345803 322.482149 604.345803 271.740938 645.544441 230.56825 696.349102 230.56825L696.349102 230.56825ZM327.160832 230.56825C377.910728 230.56825 419.111648 271.740938 419.111648 322.482149 419.111648 373.248428 377.910727 414.257043 327.160832 414.257043 276.356175 414.257043 235.157536 373.248428 235.157536 322.482149 235.157536 271.740938 276.356175 230.56825 327.160832 230.56825L327.160832 230.56825ZM511.728725 865.702748C326.996548 865.702748 175.46788 724.408061 159.144494 544.071326L864.312955 544.071326C847.989569 724.410341 696.460902 865.702748 511.728725 865.702748L511.728725 865.702748Z" fill="#FECA02"></path></g></g></svg>