<?xml version="1.0" standalone="no"?><!DOCTYPE svg PUBLIC "-//W3C//DTD SVG 1.1//EN" "http://www.w3.org/Graphics/SVG/1.1/DTD/svg11.dtd"><svg width="32" height="32" viewBox="0 0 32 32" version="1.1" xmlns="http://www.w3.org/2000/svg" xmlns:xlink="http://www.w3.org/1999/xlink"><defs><style type="text/css"><![CDATA[
@font-face { font-family: ifont; src: url("//at.alicdn.com/t/font_1442373896_4754455.eot?#iefix") format("embedded-opentype"), url("//at.alicdn.com/t/font_1442373896_4754455.woff") format("woff"), url("//at.alicdn.com/t/font_1442373896_4754455.ttf") format("truetype"), url("//at.alicdn.com/t/font_1442373896_4754455.svg#ifont") format("svg"); }

]]></style></defs><g class="transform-group"><g transform="scale(0.03125, 0.03125)"><path d="M939.8 384 866 384l0-108c0-11-8.6-20-19.8-20L84.2 256c-11.2 0-20.2 9-20.2 20l0 472c0 11 9 20 20.2 20l762.2 0c11 0 19.8-9 19.8-20l0-108 73.8 0c11.2 0 20.2-9 20.2-20L960.2 404C960 393 951 384 939.8 384zM896 576l-29.6 0L802 576l0 64 0 64-98 0-64-384 162 0 0 64 0 64 64.4 0L896 448 896 576z" fill="#CFCCD3"></path></g></g></svg>