<?xml version="1.0" standalone="no"?><!DOCTYPE svg PUBLIC "-//W3C//DTD SVG 1.1//EN" "http://www.w3.org/Graphics/SVG/1.1/DTD/svg11.dtd"><svg width="32" height="32" viewBox="0 0 32 32" version="1.1" xmlns="http://www.w3.org/2000/svg" xmlns:xlink="http://www.w3.org/1999/xlink"><defs><style type="text/css"><![CDATA[
@font-face { font-family: ifont; src: url("//at.alicdn.com/t/font_1442373896_4754455.eot?#iefix") format("embedded-opentype"), url("//at.alicdn.com/t/font_1442373896_4754455.woff") format("woff"), url("//at.alicdn.com/t/font_1442373896_4754455.ttf") format("truetype"), url("//at.alicdn.com/t/font_1442373896_4754455.svg#ifont") format("svg"); }

]]></style></defs><g class="transform-group"><g transform="scale(0.03125, 0.03125)"><path d="M811.011094 278.108019 704.687534 278.108019l-0.023536-6.65149 0-56.485479 0.023536 0 0-68.102051c0-41.370223-26.729781-68.102051-68.097958-68.102051-9.739828 0-13.382798 0-21.942755 4.282536l-0.618077 0.309038-0.668219 0.174985-398.682142 104.653525c-52.193733 14.234189-94.705965 67.24452-94.705965 118.154004l0 463.46561c0 51.28913 41.726334 93.016487 93.016487 93.016487l598.022189 0c51.290153 0 93.016487-41.727357 93.016487-93.016487L904.027581 371.124506C904.027581 319.835376 862.301248 278.108019 811.011094 278.108019zM212.988906 278.108019c-13.860682 0-27.876907 4.669346-42.715871 9.613962l-13.602809 4.532223 5.293563-13.302981c11.389398-28.476565 33.619702-48.590672 59.491952-53.845349L620.777449 120.28248l15.026228 0c2.856048-0.657986 5.593392-0.99056 8.147564-0.99056 16.720823 0 24.205285 13.850449 24.205285 27.577079l0.00307 131.23902L212.988906 278.108019zM793.881972 603.171466c-8.481162 8.482185-20.707624 13.546527-32.704866 13.546527-12.178367 0-24.100908-4.938476-32.708959-13.547551-8.483208-8.482185-13.547551-20.708648-13.547551-32.704866s5.064342-24.222681 13.548574-32.705889c8.608052-8.609075 20.529569-13.546527 32.707936-13.546527 11.997242 0 24.223704 5.064342 32.705889 13.547551 8.482185 8.482185 13.546527 20.707624 13.546527 32.704866C807.429523 582.462818 802.36518 594.689281 793.881972 603.171466z" fill="#0EADFD"></path></g></g></svg>