<?xml version="1.0" standalone="no"?><!DOCTYPE svg PUBLIC "-//W3C//DTD SVG 1.1//EN" "http://www.w3.org/Graphics/SVG/1.1/DTD/svg11.dtd"><svg width="32" height="32" viewBox="0 0 32 32" version="1.1" xmlns="http://www.w3.org/2000/svg" xmlns:xlink="http://www.w3.org/1999/xlink"><defs><style type="text/css"><![CDATA[
@font-face { font-family: ifont; src: url("//at.alicdn.com/t/font_1442373896_4754455.eot?#iefix") format("embedded-opentype"), url("//at.alicdn.com/t/font_1442373896_4754455.woff") format("woff"), url("//at.alicdn.com/t/font_1442373896_4754455.ttf") format("truetype"), url("//at.alicdn.com/t/font_1442373896_4754455.svg#ifont") format("svg"); }

]]></style></defs><g class="transform-group"><g transform="scale(0.03125, 0.03125)"><path d="M827.587632 634.633015c12.07706-33.885761 19.087731-70.168106 19.945261-108.075461 4.341888-1.370207 8.909927-2.742461 13.0799-4.100388 46.38033-15.122419 81.817424-29.709649 99.547227-42.215474l-14.108323-81.256652c-19.09694-5.111414-52.604078-6.755868-95.421256-5.545296-8.250918 0.229221-17.076934 0.641613-25.989931 1.081635-12.447497-32.305777-29.474288-62.22725-50.483788-88.86391 4.820796-7.604188 9.576099-15.150048 13.895475-22.281469 22.438035-37.052894 37.795814-67.344804 42.982954-86.693478l-62.241576-53.03796c-17.86181 8.54563-44.568055 29.163203-76.601632 58.034764-6.122441 5.517667-12.570293 11.54801-19.060101 17.639752-29.325909-16.317641-61.309344-28.28623-95.129614-35.129078-1.109264-8.890484-2.231831-17.702174-3.428076-25.911136-6.262634-43.030026-13.671371-76.259848-21.947871-94.468558l-81.248466 0c-8.27957 18.20871-15.685237 51.438533-21.950941 94.468558-1.196245 8.209986-2.318812 17.020652-3.428076 25.911136-33.821293 6.842849-65.804728 18.810415-95.129614 35.129078-6.489808-6.091742-12.93766-12.122085-19.057031-17.639752-32.036647-28.871561-58.742892-49.489134-76.604702-58.034764l-62.241576 53.03796c5.187139 19.348674 20.544919 49.640584 42.982954 86.693478 4.319375 7.131421 9.074679 14.676257 13.898545 22.281469-21.012569 26.63666-38.039361 56.559157-50.485835 88.86391-8.911974-0.440022-17.73799-0.851391-25.989931-1.081635-42.817178-1.209548-76.324316 0.433882-95.421256 5.545296l-14.108323 81.256652c17.729803 12.505825 53.166897 27.093055 99.549274 42.215474 4.167926 1.357927 8.735965 2.731204 13.077853 4.100388 0.857531 37.907355 7.868201 74.190723 19.945261 108.075461-0.493234 0.394996-0.954745 0.751107-1.444908 1.151219-27.952632 22.659069-57.410548 47.004547-91.163279 74.509994l40.627303 71.456449c40.327474-15.925714 75.825966-29.664623 109.126396-42.918485 0.520863-0.207731 0.9967-0.409322 1.518586-0.6191 24.930809 30.05655 54.953589 55.503105 88.60706 75.355245-0.12075 0.599657-0.243547 1.14815-0.361227 1.750877-7.075139 35.624359-14.237259 73.523527-22.687722 116.64872l76.352969 28.221762c20.813025-38.529525 39.308261-72.223928 56.42715-104.115266 0.304945-0.565888 0.571005-1.091868 0.876973-1.657756 18.785855 3.308349 37.994336 5.380544 57.712423 5.380544 19.718087 0 38.924521-2.072195 57.709353-5.380544 0.304945 0.565888 0.571005 1.092891 0.876973 1.657756 17.121959 31.891338 35.613102 65.585741 56.42715 104.115266l76.352969-28.221762c-8.450463-43.125193-15.612583-81.024361-22.684652-116.64872-0.12075-0.601704-0.243547-1.151219-0.364297-1.750877 33.652448-19.853164 63.675228-45.298695 88.60706-75.355245 0.520863 0.209778 0.9967 0.411369 1.518586 0.6191 33.30043 13.253862 68.798922 26.992771 109.126396 42.918485l40.627303-71.456449c-33.750685-27.504424-63.210647-51.849902-91.163279-74.509994C828.542376 635.384122 828.079842 635.028011 827.587632 634.633015zM512.004093 738.151693c-123.752512 0-224.072335-100.518345-224.072335-224.512357s100.319823-224.509287 224.072335-224.509287c123.749442 0 224.072335 100.516298 224.072335 224.509287S635.753535 738.151693 512.004093 738.151693z" fill="#0EADFD"></path></g></g></svg>