<?xml version="1.0" standalone="no"?><!DOCTYPE svg PUBLIC "-//W3C//DTD SVG 1.1//EN" "http://www.w3.org/Graphics/SVG/1.1/DTD/svg11.dtd"><svg width="32" height="32" viewBox="0 0 32 32" version="1.1" xmlns="http://www.w3.org/2000/svg" xmlns:xlink="http://www.w3.org/1999/xlink"><defs><style type="text/css"><![CDATA[
@font-face { font-family: ifont; src: url("//at.alicdn.com/t/font_1442373896_4754455.eot?#iefix") format("embedded-opentype"), url("//at.alicdn.com/t/font_1442373896_4754455.woff") format("woff"), url("//at.alicdn.com/t/font_1442373896_4754455.ttf") format("truetype"), url("//at.alicdn.com/t/font_1442373896_4754455.svg#ifont") format("svg"); }

]]></style></defs><g class="transform-group"><g transform="scale(0.03125, 0.03125)"><path d="M882.128 150.916h-741.488c-36.13 0-65.426 29.316-65.426 65.426v590.615c0 36.142 29.296 65.437 65.426 65.437h741.488c36.14 0 65.424-29.294 65.424-65.437v-590.615c0.001-36.111-29.284-65.426-65.424-65.426M903.188 658.249l-224.090-195.028-123.354 127.006 56.057 83.177-257.614-225.040-234.611 198.131v-407.599c0-24.077 19.522-43.616 43.616-43.616h696.381c24.108 0 43.616 19.54 43.616 43.616v419.353z" fill="#0EADFD"></path></g></g></svg>